<?xml version="1.0" standalone="no"?>
<!DOCTYPE svg PUBLIC "-//W3C//DTD SVG 20010904//EN"
 "http://www.w3.org/TR/2001/REC-SVG-20010904/DTD/svg10.dtd">
<svg version="1.0" xmlns="http://www.w3.org/2000/svg"
 width="700.000000pt" height="700.000000pt" viewBox="0 0 700.000000 700.000000"
 preserveAspectRatio="xMidYMid meet">
<metadata>
Created by potrace 1.11, written by Peter Selinger 2001-2013
</metadata>
<g transform="translate(0.000000,700.000000) scale(0.100000,-0.100000)"
fill="#000000" stroke="none">
<path d="M3429 6703 c-22 -19 -30 -37 -39 -96 -121 -727 -360 -1353 -813
-2122 -38 -66 -131 -219 -205 -340 -74 -121 -140 -229 -146 -240 -6 -11 -25
-40 -41 -65 -33 -52 -99 -163 -197 -335 -65 -114 -200 -379 -204 -400 -1 -5
-13 -35 -27 -65 -21 -47 -46 -114 -88 -230 -23 -67 -61 -232 -78 -342 -15 -94
-18 -164 -16 -298 2 -96 6 -195 10 -220 12 -84 46 -243 56 -262 5 -10 7 -18 5
-18 -10 0 75 -223 117 -309 249 -507 704 -884 1237 -1024 199 -52 277 -62 500
-62 157 0 212 4 315 20 361 58 745 249 1005 500 165 159 268 293 375 485 74
134 160 355 178 460 3 14 9 43 15 65 6 22 14 65 17 95 4 30 9 64 12 75 10 40
11 351 2 415 -5 36 -11 81 -13 100 -35 255 -168 609 -355 944 -34 60 -61 111
-61 113 0 2 -12 21 -27 44 -22 33 -24 43 -15 62 6 12 23 51 38 87 29 72 149
316 182 370 12 19 25 42 29 50 4 8 24 43 45 78 21 34 38 64 38 66 0 15 -611
-164 -725 -213 -11 -4 -69 -27 -130 -51 -216 -85 -548 -242 -667 -317 -21 -12
-42 -23 -48 -23 -5 0 -10 -4 -10 -8 0 -5 -12 -14 -27 -21 -45 -21 -233 -149
-342 -235 -122 -95 -313 -281 -393 -382 -191 -241 -304 -491 -355 -784 -15
-85 -8 -418 10 -510 9 -47 19 -94 21 -105 35 -178 174 -518 278 -684 l28 -45
0 32 c0 26 10 82 46 262 3 14 18 72 34 130 179 653 483 1206 905 1640 141 146
163 161 73 50 -381 -471 -632 -987 -757 -1555 -22 -98 -25 -114 -40 -225 -23
-162 -31 -262 -35 -432 -3 -129 -6 -125 54 -70 57 53 207 143 337 201 346 156
461 222 587 334 68 61 186 200 213 252 9 17 19 32 23 35 13 10 99 178 138 270
78 186 195 584 217 740 4 24 8 47 10 50 5 8 67 389 81 495 3 28 8 59 10 70 2
11 7 34 10 50 15 85 83 308 104 342 9 15 10 13 6 -12 -5 -29 -15 -146 -21
-250 -8 -119 -6 -266 2 -278 25 -32 144 -335 157 -400 9 -41 14 -62 24 -102 6
-22 14 -60 17 -85 4 -25 11 -70 15 -100 8 -56 6 -348 -3 -385 -3 -11 -12 -60
-21 -108 -90 -480 -424 -916 -875 -1143 -122 -61 -255 -107 -406 -140 -114
-24 -152 -28 -305 -28 -173 -1 -222 3 -330 24 -30 6 -66 13 -80 16 -14 3 -72
21 -130 41 -602 203 -1030 728 -1108 1358 -14 120 -8 348 13 475 9 53 63 255
81 303 82 216 156 370 301 627 49 85 160 271 200 332 23 37 43 69 43 71 0 3
26 47 59 98 75 120 218 354 243 399 11 19 46 80 78 135 256 445 438 837 561
1212 24 73 46 133 49 133 3 0 20 -49 39 -108 120 -372 342 -847 606 -1297 48
-83 100 -171 115 -197 15 -28 30 -44 36 -39 5 4 63 27 129 51 66 24 123 46
127 49 4 4 -37 80 -91 171 -144 242 -202 347 -311 563 -209 411 -350 786 -455
1209 -14 53 -26 107 -29 120 -3 13 -10 48 -16 78 -13 66 -28 150 -36 205 -10
63 -30 102 -63 120 -41 20 -89 16 -122 -12z"/>
</g>
</svg>
